<?xml version="1.0" encoding="utf-8"?>
<!-- Generator: Adobe Illustrator 24.0.0, SVG Export Plug-In . SVG Version: 6.00 Build 0)  -->
<svg version="1.1" id="Layer_1" xmlns="http://www.w3.org/2000/svg" xmlns:xlink="http://www.w3.org/1999/xlink" x="0px" y="0px"
	 viewBox="0 0 500 500" style="enable-background:new 0 0 500 500;" xml:space="preserve">
<style type="text/css">
	.st0{fill:#FFB52A;}
	.st1{fill:#FF6747;}
	.st2{fill:#7D2222;}
	.st3{fill:#FDDEAF;}
	.st4{fill:#F58F29;}
	.st5{fill:#97A09D;}
	.st6{fill:#858C8A;}
	.st7{fill:#FFFFFF;}
	.st8{fill:#FF9BA8;}
	.st9{fill:#15162F;}
	.st10{fill:#B43E18;}
	.st11{fill:none;stroke:#7D2222;stroke-width:1.1767;stroke-linecap:round;stroke-linejoin:round;stroke-miterlimit:10;}
	.st12{fill:#7D9F09;}
	.st13{fill:#FAEDCF;}
	.st14{fill:#75290B;}
	.st15{fill:#FF6B4D;}
	.st16{fill:#F6AB0E;}
	.st17{fill:#8C310D;}
	.st18{fill:#F55D01;}
	.st19{fill:#E03901;}
	.st20{fill:#FFFFFD;}
	.st21{fill:#732A12;}
	.st22{fill:#F05E00;}
	.st23{fill:none;stroke:#732A12;stroke-width:1.0798;stroke-linecap:round;stroke-linejoin:round;stroke-miterlimit:10;}
	.st24{fill:#FF7878;}
	.st25{fill:#FFC19E;}
	.st26{fill:none;}
	.st27{fill:none;stroke:#732A12;stroke-width:2.6732;stroke-linecap:round;stroke-linejoin:round;stroke-miterlimit:10;}
	.st28{fill:#CF4E01;}
	.st29{fill:#B7C2BE;}
	.st30{fill:#00123B;}
	.st31{fill:#FEA01C;}
	.st32{fill:#F55D3D;}
	.st33{fill:#FEDB9C;}
	.st34{fill:#D17317;}
	.st35{fill:#FEDB9C;stroke:#7D2222;stroke-width:0.7404;stroke-linecap:round;stroke-linejoin:round;stroke-miterlimit:10;}
	.st36{fill:#FEDB9C;stroke:#7D2222;stroke-width:0.7729;stroke-linecap:round;stroke-linejoin:round;stroke-miterlimit:10;}
	.st37{fill:none;stroke:#7D2222;stroke-width:0.7729;stroke-linecap:round;stroke-linejoin:round;stroke-miterlimit:10;}
	.st38{fill:#F9FBFC;}
	.st39{fill:#F6C8CC;}
	.st40{fill:#DB7B8E;}
	.st41{fill:#243350;}
	.st42{fill:#767778;}
	.st43{fill:#F9AC02;}
	.st44{fill:#F05174;}
	.st45{fill:#2C1A1B;}
	.st46{fill:#D06402;}
	.st47{fill:#B3B3B3;}
	.st48{fill:#FBA5AE;}
	.st49{fill:#363636;}
	.st50{fill:#A3A3A3;}
	.st51{fill:#F9DFC6;}
	.st52{fill:#CA7A43;}
	.st53{fill:#5F3423;}
	.st54{fill:#DE3757;}
	.st55{fill:#E2A364;}
	.st56{fill:#FFE3C9;}
	.st57{fill:#281A1A;}
	.st58{fill:#EC7F7F;}
	.st59{fill:#CF8248;}
	.st60{fill:#F6E7D3;}
	.st61{fill:#573640;}
	.st62{fill:#AF2B4C;}
	.st63{fill:#9D532F;}
	.st64{fill:#571016;}
	.st65{fill:#FDFDF9;}
	.st66{fill:#942B1D;}
	.st67{fill:#C2552A;}
	.st68{fill:#EF772E;}
	.st69{fill:#E4E6E7;}
	.st70{fill:none;stroke:#243350;stroke-width:0.4733;stroke-miterlimit:10;}
	.st71{fill:none;stroke:#7D2222;stroke-width:2.5806;stroke-linecap:round;stroke-linejoin:round;stroke-miterlimit:10;}
	.st72{fill:none;stroke:#243350;stroke-width:1.0322;stroke-miterlimit:10;}
	.st73{fill:none;stroke:#2C1A1B;stroke-width:0.4342;stroke-linecap:round;stroke-linejoin:round;stroke-miterlimit:10;}
	.st74{fill:none;stroke:#2C1A1B;stroke-width:0.8683;stroke-linecap:round;stroke-linejoin:round;stroke-miterlimit:10;}
	.st75{fill:#3B3B3D;stroke:#3B3B3D;stroke-width:0.3117;stroke-miterlimit:10;}
	.st76{fill:#F9A4A5;}
	.st77{fill:#FFCC6E;}
	.st78{fill:#A9444B;}
	.st79{fill:none;stroke:#3B3B3D;stroke-width:0.935;stroke-linecap:round;stroke-linejoin:round;stroke-miterlimit:10;}
	.st80{fill:#3B3B3D;}
	.st81{fill:#FB8A00;}
	.st82{fill:#F6EADE;}
	.st83{fill:#BDBAB2;}
	.st84{fill:#947861;}
	.st85{fill:#2E1F1D;}
	.st86{fill:#86827C;}
	.st87{fill:none;stroke:#7D2222;stroke-width:1.0198;stroke-linecap:round;stroke-linejoin:round;stroke-miterlimit:10;}
	.st88{fill:#FEDB9C;stroke:#7D2222;stroke-width:1.4293;stroke-linecap:round;stroke-linejoin:round;stroke-miterlimit:10;}
	.st89{fill:#FEDB9C;stroke:#7D2222;stroke-width:1.4921;stroke-linecap:round;stroke-linejoin:round;stroke-miterlimit:10;}
	.st90{fill:none;stroke:#7D2222;stroke-width:1.4921;stroke-linecap:round;stroke-linejoin:round;stroke-miterlimit:10;}
	.st91{fill:#3B3B3D;stroke:#3B3B3D;stroke-width:0.7305;stroke-miterlimit:10;}
	.st92{fill:none;stroke:#3B3B3D;stroke-width:2.1916;stroke-linecap:round;stroke-linejoin:round;stroke-miterlimit:10;}
	.st93{fill:none;stroke:#7D2222;stroke-width:3.0894;stroke-linecap:round;stroke-linejoin:round;stroke-miterlimit:10;}
	.st94{fill:none;stroke:#2E1F1D;stroke-width:0.6143;stroke-linecap:round;stroke-linejoin:round;stroke-miterlimit:10;}
	.st95{fill:none;stroke:#00FF00;stroke-width:0.2326;stroke-miterlimit:10;}
	.st96{fill:none;stroke:#2C1A1B;stroke-width:1.0325;stroke-linecap:round;stroke-linejoin:round;stroke-miterlimit:10;}
	.st97{fill:none;stroke:#2C1A1B;stroke-width:2.0651;stroke-linecap:round;stroke-linejoin:round;stroke-miterlimit:10;}
	.st98{fill:none;stroke:#2E1F1D;stroke-width:1.3604;stroke-linecap:round;stroke-linejoin:round;stroke-miterlimit:10;}
	.st99{fill:none;stroke:#00FF00;stroke-width:0.3936;stroke-miterlimit:10;}
	.st100{fill:#B2B2B2;}
	.st101{fill:#858585;}
	.st102{fill:#573126;}
	.st103{fill:#E9CFB8;}
</style>
<g>
	<path class="st55" d="M422.58,409.44c-6.82,11.97-16.56,21.19-27.48,28.95c-21.44,15.23-39.18,16.27-39.18,16.27l-3.1-73.71
		c0,0,7.62-12.05,25.06-17c1.91-0.54,3.82-1.21,5.71-1.98h0c15.4-6.34,29.47-20.2,29.99-36.53c0,0,18.33,4.44,19.07,40.66
		C433.01,383.85,429.15,397.92,422.58,409.44z"/>
	<path class="st7" d="M422.58,409.44c-0.03-2-41.77-19.12-39-47.48h0c15.4-6.34,29.47-20.2,29.99-36.53c0,0,18.33,4.44,19.07,40.66
		C433.01,383.85,429.15,397.92,422.58,409.44z"/>
	<path class="st55" d="M108.11,226.22c0,0.44,0.22,3.85-2.81,12.12c-3.03,8.28-6.8,11.91-10.2,19.22
		c-3.4,7.32-13.01,26.61-12.42,56.33c0,0-0.11,15.45,5.99,29.2c0,0,9.93,51.55,24.59,88.76c8.08,20.5,17.59,36.65,27.67,37.44
		c25.97,2.03,38.83-2.13,45.01-3.19c0.58-0.1,1.1-0.17,1.56-0.21c5.47-0.44,113.85-0.15,132.78-23.8
		c18.92-23.66,9.16-72.74,6.21-83.1c-2.96-10.35-21.59-70.38-26.02-85.61c-4.44-15.23-13.6-28.53-13.6-28.53"/>
	<path class="st7" d="M132.99,240.47c0,0-9.54,29.68-8.13,66.06c1.41,36.39,20.84,82.31,39.92,90.44
		c19.08,8.13,42.75,13.07,63.24-22.26s24.73-96.8,12.01-122.94C227.31,225.63,132.99,240.47,132.99,240.47z"/>
	<g>
		<path class="st55" d="M360.57,441.57c-2.62,8.29-2.02,11.15-2.77,14.64c0,0.01,0,0.02,0,0.03c-0.39,1.81-1.15,3.81-2.92,6.84
			c-5.18,8.87-26.17,17.6-44.21,17.45c-18.04-0.15-31.36-4.68-35.34-13.45c-3.55-7.84-5.47-29.13,25.43-34.45
			c0,0-8.45-14.45-3.55-39.33c4.8-24.4,19.52-34.9,27.43-37.78c10.42-3.8,27.5,7.1,34.38,29.05
			C365.89,406.52,364.56,428.92,360.57,441.57z"/>
		<path class="st7" d="M357.8,456.2c0,0.01,0,0.02,0,0.03c-0.39,1.81-1.15,3.81-2.92,6.84c-3.24,5.55-12.66,11.04-23.68,14.33
			c-4.37,1.31-9,2.28-13.59,2.76c-2.33,0.25-4.66,0.37-6.94,0.35c-6.48-0.05-12.34-0.67-17.39-1.85c-9.01-2.1-15.4-5.98-17.95-11.6
			c-3.21-7.08-5.08-25.14,17.37-32.49c2.4-0.79,5.07-1.45,8.06-1.96c0,0,21.53-10.36,40.38-5.48
			C358.82,431.71,358.95,448.95,357.8,456.2z"/>
		<path class="st56" d="M331.2,477.41c-4.37,1.31-9,2.28-13.59,2.76c-5.51-9.71-2.41-18.87-2.41-18.87S317.98,475.92,331.2,477.41z"
			/>
	</g>
	<g>
		<g>
			<path class="st7" d="M335.29,190.95c1.18,13.61-4.14,35.16-28.08,50.27c-7.65,4.83-17.21,9.01-29.07,12.05
				c0,0-29.43,6.95-54.41,6.36c0,0-21.2,8.87-44.41,5.91c-23.22-2.95-35.73-17.29-35.73-17.29s-33.97-11.51-58.4-30.46
				c-5.37-4.17-10.28-8.69-14.27-13.53c-19.14-23.24-20.97-49.29-7.24-70.73c1.86-2.91,4.01-5.73,6.43-8.45
				c16.78-18.8,18.7-47.31,43.84-80.73c23.48-31.21,56.44-36.36,101.78-33.17h0c3.19,0.23,6.45,0.49,9.77,0.79
				c3.58,0.33,7.88,0.87,12.71,1.86c22.49,4.59,56.42,18.68,81.77,64.01c23.62,42.22,13.42,71.9,14.9,106.67
				C334.97,186.64,335.1,188.78,335.29,190.95z"/>
			<path class="st55" d="M334.88,184.52c-14.11-11.71-31.76-18.27-47.05-18.51c-20.96-0.33-48.57,2.22-63.54-20.96
				c-14.97-23.18-7.13-45.69,1-60.84c8.13-15.15,16.56-23.36,19.88-41.99c2.05-11.5-2.88-22.01-6.96-28.37
				c22.49,4.59,56.42,18.68,81.77,64.01C343.61,120.06,333.41,149.75,334.88,184.52z"/>
			<path class="st55" d="M196.68,36.37c-6.65,23.36,3.85,36.67-0.59,62.1c-4.44,25.43-14.49,39.48-39.48,47.16
				c-24.99,7.69-34.6-4.44-44.06-9.46c-8.28-4.4-31.98-7.9-48.86-2.64c1.86-2.91,4.01-5.73,6.43-8.45
				c16.78-18.8,18.7-47.31,43.84-80.73c23.48-31.21,56.44-36.36,101.78-33.17C208.79,15.71,200.31,23.6,196.68,36.37z"/>
			<path class="st102" d="M248.02,123.97c0,0,5.43-7.98,11.53-8.21c6.1-0.22,14.64,3.88,20.63,18.63
				C280.18,134.4,268.42,116.77,248.02,123.97z"/>
			<path class="st102" d="M163.69,106.8c0,0-2.76-9.26-8.5-11.32c-5.74-2.06-15.13-0.74-25.3,11.5
				C129.88,106.98,146.43,93.74,163.69,106.8z"/>
			<path class="st102" d="M198.23,151.59c10.09,1.65,22.99,6.76,23.07,15.93c0.07,9.17-16.78,20.77-29.42,20.11
				c-12.64-0.67-23.53-21.03-19.07-30.68C176.35,149.26,190.32,150.29,198.23,151.59z"/>
			<ellipse class="st102" cx="258.44" cy="149.87" rx="19.41" ry="21.12"/>
			<path class="st7" d="M272.08,145.12c0,4.21-2.98,7.61-6.65,7.61c-3.67,0-6.65-3.41-6.65-7.61s2.98-7.61,6.65-7.61
				C269.1,137.5,272.08,140.91,272.08,145.12z"/>
			
				<ellipse transform="matrix(0.1538 -0.9881 0.9881 0.1538 -6.7392 249.948)" class="st102" cx="142.56" cy="128.91" rx="21.12" ry="19.41"/>
			<path class="st7" d="M156.77,126.31c-0.65,4.16-4.11,7.07-7.75,6.5c-3.63-0.56-6.05-4.39-5.4-8.55c0.65-4.16,4.11-7.07,7.75-6.5
				C155,118.33,157.42,122.16,156.77,126.31z"/>
			<path class="st7" d="M273.11,96.03c-2.16,3.19-7.99,3-13.03-0.41c-5.04-3.41-7.37-8.76-5.22-11.95c2.16-3.19,7.99-3,13.03,0.41
				C272.93,87.49,275.26,92.84,273.11,96.03z"/>
			<path class="st7" d="M172.86,69.57c0.73,3.78-3.52,7.78-9.5,8.93c-5.98,1.16-11.41-0.97-12.14-4.75
				c-0.73-3.78,3.52-7.78,9.5-8.93C166.69,63.67,172.13,65.79,172.86,69.57z"/>
			<path class="st102" d="M232.75,211.88c0,0-7.42,12.54-27.43,15.92c-5.66,0.96-12.32,1.19-20.11,0.2
				c-7.66-0.98-13.77-2.94-18.63-5.42c-17.57-8.93-18.93-24.52-18.93-24.52s4.21,5.88,13.86,7.43c1.98,0.32,4.03,0.51,6.08,0.59
				c10.08,0.39,20.28-1.93,22.87-5.25c0,0,5.98,8.94,18.57,12.65c0.76,0.23,1.54,0.43,2.36,0.62
				C225.58,217.31,232.75,211.88,232.75,211.88z"/>
			<path class="st58" d="M209.03,213.48c-0.79,5.27-1.96,10.11-3.71,14.32c-3.02,7.31-7.74,12.7-15.08,15.05
				c-12.09,3.88-20.74-5.54-22.95-15.19c-0.36-1.57-0.59-3.29-0.7-5.08c-0.39-5.86,0.33-12.44,1.01-16.51
				c10.08,0.39,20.28-1.93,22.87-5.25C190.47,200.82,196.45,209.76,209.03,213.48z"/>
			<path class="st102" d="M152.98,17.3c0,0-17.85,3.99-25.95,26.84c-8.1,22.84-6.99,27.94-14.19,47.79s-32.27,46.68-44.58,46.46
				s-20.4-17.52-26.5-32.6c-6.1-15.08-9.87-27.35-10.39-42.8S32.11,38.7,43.2,29.72c8.2-6.64,30.24-9.83,47.39-14.05
				c17.15-4.21,29.87-7.24,39.18-6.73C139.09,9.46,149.88,11.83,152.98,17.3z"/>
			<path class="st102" d="M287.83,39.48c0,0,17.85-7.32,38.26,5.88c20.4,13.2,27.28,18.52,43.25,30.05
				c15.97,11.53,22.95,21.96,21.4,36.82c-1.55,14.86-16.97,39.81-33.71,55.45c-16.74,15.64-26.72,20.79-35.65,14.75
				c-8.93-6.04-18.8-29.28-20.9-46.24c-2.11-16.97,0.67-29.05,2.66-42.03C305.13,81.17,303.8,51.23,287.83,39.48z"/>
		</g>
	</g>
	<path class="st55" d="M152.27,420.13c-0.71,11.45-1.7,22.85-2.61,30.97c-2,17.74-8.48,27.72-21.57,31.22
		c-13.09,3.49-27.62-0.72-27.62-0.72c-12.47,2.5-19.3-3.77-19.3-3.77s-5.6,1.33-10.7-2.55c-5.1-3.88-6.65-11.09-3.99-20.07
		c2.66-8.98,11.09-10.87,13.75-17.08c1.89-4.4,2.77-16.59,3.4-29.99c0.26-5.51,0.48-11.24,0.71-16.7c0.78-18.74,3.1-55.11,3.1-55.11
		l39.02-6.77c0,0,28.61,15.97,26.63,55.12C152.68,392.98,153.11,406.58,152.27,420.13z"/>
	<path class="st7" d="M152.27,420.13c-0.71,11.45-1.7,22.85-2.61,30.97c-2,17.74-8.48,27.72-21.57,31.22
		c-13.09,3.49-27.62-0.72-27.62-0.72c-2.21,0.44-4.25,0.61-6.1,0.59c-8.58-0.11-13.2-4.36-13.2-4.36s-2.32,0.55-5.33-0.09
		c-1.67-0.35-3.55-1.08-5.37-2.46c-5.1-3.88-6.65-11.09-3.99-20.07c2.66-8.98,11.09-10.87,13.75-17.08
		c1.89-4.4,2.77-16.59,3.4-29.99C86.09,405.45,150.53,413.4,152.27,420.13z"/>
	<path class="st55" d="M290.22,427c-0.71,11.45-1.7,22.85-2.61,30.97c-2,17.74-8.48,27.72-21.57,31.22
		c-13.09,3.49-27.62-0.72-27.62-0.72c-12.47,2.5-19.3-3.77-19.3-3.77s-5.6,1.33-10.7-2.55c-5.1-3.88-6.65-11.09-3.99-20.07
		c2.66-8.98,11.09-10.87,13.75-17.08c1.88-4.4,2.77-16.59,3.4-29.98c0.26-5.51,0.63-12.35,0.91-17.82
		c1.77-35.26,20.4-56.78,20.4-56.78l42.49,16.42c0,0,4.77,19.41,5.66,34.71C291.52,399.85,291.06,413.46,290.22,427z"/>
	<path class="st7" d="M290.22,427c-0.71,11.45-1.7,22.85-2.61,30.97c-2,17.74-8.48,27.72-21.57,31.22
		c-13.09,3.49-27.62-0.72-27.62-0.72c-2.22,0.44-4.27,0.61-6.13,0.59c-8.57-0.12-13.17-4.36-13.17-4.36s-1.64,0.39-3.96,0.13
		c-1.96-0.22-4.4-0.9-6.74-2.68c-5.1-3.88-6.65-11.09-3.99-20.07s11.09-10.87,13.75-17.08c1.89-4.4,2.77-16.59,3.4-29.98
		C224.04,412.33,288.48,420.28,290.22,427z"/>
	<path class="st103" d="M252.58,336.24c-0.29,0.28-0.46,0.42-0.46,0.42c0.01-0.1,0.01-0.2,0.02-0.31
		C252.29,336.32,252.43,336.28,252.58,336.24z"/>
	<path class="st56" d="M81.18,477.83c0,0-2.32,0.55-5.33-0.09c-0.9-9.11,5.15-13.12,5.15-13.12C78,470.61,81.18,477.83,81.18,477.83
		z"/>
	<path class="st56" d="M100.48,481.6c-2.21,0.44-4.25,0.61-6.1,0.59c-1.74-8.18,4.03-14.57,4.03-14.57
		C95.75,475.6,100.48,481.6,100.48,481.6z"/>
	<path class="st56" d="M219.13,484.7c0,0-1.64,0.39-3.96,0.13c-2.12-9.58,2.45-13.01,2.45-13.01
		C215.29,479.7,219.13,484.7,219.13,484.7z"/>
	<path class="st56" d="M238.42,488.47c-2.22,0.44-4.27,0.61-6.13,0.59c-2.51-12.06,5.06-17.34,5.06-17.34
		C233.36,481.59,238.42,488.47,238.42,488.47z"/>
</g>
</svg>
